# xmcd
#
# Track frame offsets:
#	150
#	13390
#	25964
#	36321
#	46706
#	61075
#	75154
#	88699
#	100352
#	113667
#	126433
#	139241
#	150266
#	163379
#	175637
#	187331
#
# Disc length: 2681 seconds
#
# Revision: 0
# Processed by: cddbd v1.4PL0 Copyright (c) Steve Scherf et al.
# Submitted via: dBpowerAMP V4.0
#
DISCID=cf0a7710
DTITLE=Ray Charles - Portrait
DYEAR=1900
DGENRE=Blues
TTITLE0=Baby Won´t You Please Come Home 
TTITLE1=Rockin´ Chair Blues 
TTITLE2=Sittin´ On Top The Wold
TTITLE3=Ain´t That Fine 
TTITLE4=Someday 1
TTITLE5=Someday 2
TTITLE6=The Midnight Hour
TTITLE7=How Long, How Long Blues
TTITLE8=Alone In The City
TTITLE9=Can Anyone Ask For More 
TTITLE10=You Always Miss The Water (When The Well Runs Dry)
TTITLE11=A Sentimental Blues
TTITLE12=Don´t Put All Your Breams In One Basket
TTITLE13=I´ve Had My Fun (Going Down Slow)
TTITLE14=She´s On The Ball
TTITLE15=I´m Going Down The River
EXTD=
EXTT0=
EXTT1=
EXTT2=
EXTT3=
EXTT4=
EXTT5=
EXTT6=
EXTT7=
EXTT8=
EXTT9=
EXTT10=
EXTT11=
EXTT12=
EXTT13=
EXTT14=
EXTT15=
PLAYORDER=
